<svg width="36" height="36" viewBox="0 0 36 36" fill="none" xmlns="http://www.w3.org/2000/svg">
<path d="M18 7C15.9229 7 13.9309 7.78359 12.4622 9.17839C10.9935 10.5732 10.1684 12.465 10.1684 14.4375V19.2751C10.1685 19.4132 10.1403 19.5498 10.0856 19.6773C10.0644 19.7266 10.0348 19.7715 10.0026 19.8144L8.1779 22.2447C8.14599 22.2872 8.11667 22.3318 8.09526 22.3804C8.02532 22.5392 7.99307 22.7111 8.00124 22.8838C8.01067 23.0828 8.07352 23.2763 8.18383 23.4457C8.29413 23.6152 8.44823 23.7551 8.63148 23.8521C8.81474 23.9491 9.02106 24 9.23086 24H26.7691C26.9789 24 27.1853 23.9491 27.3685 23.8521C27.5518 23.7551 27.7059 23.6152 27.8162 23.4457C27.9265 23.2763 27.9893 23.0828 27.9988 22.8838C28.0069 22.7111 27.9747 22.5391 27.9047 22.3803C27.8833 22.3317 27.854 22.2872 27.8222 22.2448L25.9977 19.8134C25.9661 19.7712 25.9369 19.727 25.9159 19.6786C25.8605 19.5508 25.8317 19.4137 25.8316 19.2751V14.4375C25.8316 12.465 25.0065 10.5732 23.5378 9.17839C22.0691 7.78359 20.0771 7 18 7Z" fill="#C4C4C4"/>
<path fill-rule="evenodd" clip-rule="evenodd" d="M20.4583 26C21.1117 26 21.5872 26.6278 21.2313 27.1758C20.5182 28.2738 19.281 29 17.8742 29C16.4675 29 15.2303 28.2738 14.5172 27.1758C14.1613 26.6278 14.6367 26 15.2902 26H20.4583Z" fill="#C4C4C4"/>
</svg>
