<svg width="16" height="16" viewBox="0 0 16 16" fill="none" xmlns="http://www.w3.org/2000/svg">
<path d="M8.31216 11.1286L13.6222 5.55559C13.7108 5.4626 13.7603 5.33906 13.7603 5.21059C13.7603 5.08212 13.7108 4.95858 13.6222 4.86559L13.6162 4.85959C13.5732 4.81436 13.5215 4.77834 13.4641 4.75372C13.4068 4.72911 13.3451 4.71642 13.2827 4.71642C13.2203 4.71642 13.1585 4.72911 13.1012 4.75372C13.0439 4.77834 12.9921 4.81436 12.9492 4.85959L7.94916 10.1076L2.95116 4.85959C2.90819 4.81436 2.85646 4.77834 2.79913 4.75372C2.74179 4.72911 2.68005 4.71642 2.61766 4.71642C2.55527 4.71642 2.49352 4.72911 2.43619 4.75372C2.37886 4.77834 2.32713 4.81436 2.28416 4.85959L2.27816 4.86559C2.18951 4.95858 2.14006 5.08212 2.14006 5.21059C2.14006 5.33906 2.18951 5.4626 2.27816 5.55559L7.58816 11.1286C7.63486 11.1776 7.69102 11.2166 7.75325 11.2433C7.81547 11.2699 7.88246 11.2837 7.95016 11.2837C8.01786 11.2837 8.08485 11.2699 8.14707 11.2433C8.2093 11.2166 8.26546 11.1776 8.31216 11.1286Z" fill="black"/>
</svg>
