<svg width="24" height="24" viewBox="0 0 24 24" fill="none" xmlns="http://www.w3.org/2000/svg">
<path d="M7.30717 12.4685L15.6667 20.4335C15.8062 20.5664 15.9915 20.6406 16.1842 20.6406C16.3769 20.6406 16.5622 20.5664 16.7017 20.4335L16.7107 20.4245C16.7785 20.36 16.8326 20.2824 16.8695 20.1964C16.9064 20.1104 16.9254 20.0178 16.9254 19.9242C16.9254 19.8306 16.9064 19.738 16.8695 19.652C16.8326 19.566 16.7785 19.4884 16.7107 19.424L8.83867 11.924L16.7107 4.42698C16.7785 4.36252 16.8326 4.28493 16.8695 4.19893C16.9064 4.11293 16.9254 4.02032 16.9254 3.92673C16.9254 3.83314 16.9064 3.74053 16.8695 3.65453C16.8326 3.56853 16.7785 3.49094 16.7107 3.42648L16.7017 3.41748C16.5622 3.28452 16.3769 3.21034 16.1842 3.21034C15.9915 3.21034 15.8062 3.28452 15.6667 3.41748L7.30717 11.3825C7.23366 11.4525 7.17513 11.5368 7.13514 11.6301C7.09514 11.7235 7.07452 11.8239 7.07452 11.9255C7.07452 12.027 7.09514 12.1275 7.13514 12.2209C7.17513 12.3142 7.23366 12.3984 7.30717 12.4685Z" fill="#737373"/>
</svg>
