<svg width="24" height="24" viewBox="0 0 24 24" fill="none" xmlns="http://www.w3.org/2000/svg">
<path fill-rule="evenodd" clip-rule="evenodd" d="M19.7609 5.39362C19.914 5.24052 20 5.03288 20 4.81636C20 4.59985 19.914 4.39221 19.7609 4.23911C19.6078 4.08601 19.4001 4 19.1836 4C18.9671 4 18.7595 4.08601 18.6064 4.23911L12 10.8455L5.39362 4.23911C5.24052 4.08601 5.03288 4 4.81636 4C4.59985 4 4.39221 4.08601 4.23911 4.23911C4.08601 4.39221 4 4.59985 4 4.81636C4 5.03288 4.08601 5.24052 4.23911 5.39362L10.8455 12L4.23911 18.6064C4.08601 18.7595 4 18.9671 4 19.1836C4 19.4001 4.08601 19.6078 4.23911 19.7609C4.39221 19.914 4.59985 20 4.81636 20C5.03288 20 5.24052 19.914 5.39362 19.7609L12 13.1545L18.6064 19.7609C18.7595 19.914 18.9671 20 19.1836 20C19.4001 20 19.6078 19.914 19.7609 19.7609C19.914 19.6078 20 19.4001 20 19.1836C20 18.9671 19.914 18.7595 19.7609 18.6064L13.1545 12L19.7609 5.39362Z" fill="#737373"/>
</svg>
